<?xml version="1.0" standalone="no"?>
<!DOCTYPE svg PUBLIC "-//W3C//DTD SVG 20010904//EN"
 "http://www.w3.org/TR/2001/REC-SVG-20010904/DTD/svg10.dtd">
<svg version="1.0" xmlns="http://www.w3.org/2000/svg"
 width="783.000000pt" height="741.000000pt" viewBox="0 0 783.000000 741.000000"
 preserveAspectRatio="xMidYMid meet">

<g transform="translate(0.000000,741.000000) scale(0.100000,-0.100000)"
fill="white" stroke="none">
<path d="M3540 7379 c-30 -5 -105 -32 -167 -59 -211 -94 -354 -188 -483 -319
-93 -94 -99 -98 -205 -141 -412 -167 -750 -394 -1072 -718 l-153 -153 -42 29
c-132 90 -366 152 -522 137 -294 -28 -533 -167 -696 -405 -209 -307 -231 -717
-55 -1047 119 -223 311 -389 536 -460 l86 -27 6 -181 c9 -285 44 -501 124
-765 201 -667 670 -1272 1278 -1651 134 -83 131 -80 139 -152 41 -404 238
-871 470 -1115 340 -358 769 -419 1216 -174 119 65 235 157 370 292 191 191
330 386 467 657 l67 133 51 16 c939 308 1684 1037 1980 1939 86 263 121 472
133 791 l7 209 95 31 c237 78 420 238 535 469 94 189 100 216 100 460 0 201
-1 214 -27 295 -74 230 -206 413 -388 537 -162 110 -402 169 -583 144 -143
-20 -283 -70 -375 -133 l-44 -30 -137 138 c-194 197 -343 320 -551 455 -175
114 -276 168 -486 257 -377 162 -758 245 -1174 259 l-200 6 0 51 c0 55 -28
126 -63 164 -51 55 -139 77 -237 61z m142 -149 c24 -30 33 -67 22 -98 -7 -19
-27 -31 -99 -57 -305 -110 -528 -276 -607 -452 -99 -222 29 -465 372 -703 273
-190 402 -302 539 -466 174 -210 292 -474 331 -739 31 -222 -2 -516 -87 -765
-22 -65 -99 -249 -108 -258 -3 -3 -188 19 -193 23 -1 1 20 49 48 106 111 234
164 459 164 699 0 172 -14 261 -65 408 -108 308 -319 555 -681 800 -170 116
-286 216 -370 321 -193 240 -219 486 -77 728 47 80 187 218 290 286 86 57 302
166 369 186 56 17 131 7 152 -19z m-722 -1611 c251 -47 487 -174 675 -363 136
-137 212 -274 264 -477 28 -106 38 -292 22 -414 -24 -184 -112 -447 -197 -590
l-30 -50 -80 -7 c-399 -36 -759 -258 -994 -613 -33 -49 -66 -99 -73 -109 -12
-18 -18 -17 -117 34 -384 198 -669 595 -762 1063 -28 144 -31 404 -5 543 101
549 489 938 989 994 83 9 226 4 308 -11z m2360 -11 c320 -68 595 -296 750
-621 92 -192 130 -369 130 -601 0 -447 -160 -832 -469 -1129 -189 -181 -394
-292 -634 -343 -38 -8 -72 -14 -77 -14 -4 0 -22 30 -40 68 -144 308 -432 560
-782 685 -15 5 -14 14 16 79 49 105 100 258 126 373 30 139 29 136 52 91 28
-55 111 -131 177 -163 51 -25 66 -28 166 -28 98 0 116 3 167 27 314 147 314
581 0 735 -51 25 -67 28 -162 28 -95 0 -111 -3 -168 -29 -44 -20 -80 -48 -122
-93 -33 -35 -60 -60 -60 -56 0 5 -5 47 -11 93 -19 156 -79 360 -142 485 l-30
60 62 56 c189 174 468 298 726 323 74 7 229 -5 325 -26z m-1405 -2039 c7 -7
-186 -1080 -247 -1372 l-10 -49 -47 7 c-206 30 -617 165 -809 267 -94 49 -230
138 -256 166 -18 20 -18 23 9 94 192 510 584 843 1055 897 86 9 290 3 305 -10z
m300 -71 c390 -154 650 -474 746 -920 25 -114 39 -449 20 -472 -38 -46 -642
-57 -951 -18 -225 29 -236 32 -232 63 5 37 252 1362 258 1381 5 15 9 15 57 1
29 -8 74 -24 102 -35z m-1459 -1197 c376 -189 858 -309 1453 -362 153 -13 562
-7 680 11 40 6 75 9 77 7 8 -8 -27 -185 -61 -306 -120 -425 -345 -815 -639
-1106 -353 -351 -724 -471 -1059 -343 -389 149 -691 660 -773 1313 -19 154
-22 465 -5 610 12 101 49 313 57 327 3 4 37 -15 77 -41 40 -27 127 -76 193
-110z"/>
<path d="M2981 4780 c-240 -89 -343 -367 -215 -585 36 -62 113 -131 179 -162
54 -25 70 -28 170 -28 100 0 115 3 166 28 74 37 153 117 191 195 56 113 49
264 -18 378 -35 60 -115 131 -182 162 -78 36 -212 42 -291 12z"/>
</g>
</svg>
